{"title":"Beasts of No Nation.2015.WEBRiP.XViD.ReLeNTLesS","uid":12588096,"size":1962937530,"categoryP":"video","categoryS":"movies","magnet":"?xt=urn:btih:6e64d22fbe82513f632f53db2acfefa7869930d0&amp;dn=Beasts+of+No+Nation.2015.WEBRiP.XViD.ReLeNTLesS&amp;tr=udp%3A%2F%2Ftracker.leechers-paradise.org%3A6969&amp;tr=udp%3A%2F%2Fzer0day.ch%3A1337&amp;tr=udp%3A%2F%2Fopen.demonii.com%3A1337&amp;tr=udp%3A%2F%2Ftracker.coppersurfer.tk%3A6969&amp;tr=udp%3A%2F%2Fexodus.desync.com%3A6969","seeders":0,"leechers":0,"uploader":"TvTeam","files":4,"time":1445054662,"description":"------------------------------------------------------------------------\r\n\r  https://www.torrenting.com\r\n\r\nSign up is OPEN - for time being. Come and have fun.\r\n\r\n------------------------------------------------------------------------P0STER\r\n[img]http://i.imgur.com/dcMdoUD.png[/img]\r\n\r\niMDB: http://www.imdb.com/title/tt1365050/\r\n\r\nGeneral\r\nComplete name               : Beasts of No Nation.2015.WEBRiP.XViD.ReLeNTLesS.avi\r\nFormat                      : AVI\r\nFormat/Info                 : Audio Video Interleave\r\nFile size                   : 1.81 GiB\r\nDuration                    : 2h 16mn\r\nOverall bit rate            : 1 902 Kbps\r\n\r\nVideo\r\nID                          : 0\r\nFormat                      : MPEG-4 Visual\r\nFormat profile              : Advanced   \r\nFormat settings, BVOP       : 1\r\nFormat settings, QPel       : No\r\nFormat settings, GMC        : No warppoints\r\nFormat settings, Matrix     : Default (H.263)\r\nMuxing mode                 : Packed bitstream\r\nCodec ID                    : XVID\r\nCodec ID/Hint               : XviD\r\nDuration                    : 2h 16mn\r\nBit rate                    : 1 702 Kbps\r\nWidth                       : 720 pixels\r\nHeight                      : 304 pixels\r\nDisplay aspect ratio        : 2.35:1\r\nFrame rate                  : 29.970 fps\r\nColor space                 : YUV\r\nChroma subsampling          : 4:2:0\r\nBit depth                   : 8 bits\r\nScan type                   : Progressive\r\nCompression mode            : Lossy\r\nBits/(Pixel*Frame)          : 0.259\r\nStream size                 : 1.62 GiB (89%)\r\nWriting library             : XviD 1.2.1 (UTC 2008-12-04)\r\n\r\nAudio\r\nID                          : 1\r\nFormat                      : AC-3\r\nFormat/Info                 : Audio Coding 3\r\nMode extension              : CM (complete main)\r\nFormat settings, Endianness : Big\r\nCodec ID                    : 2000\r\nDuration                    : 2h 16mn\r\nBit rate mode               : Constant\r\nBit rate                    : 192 Kbps\r\nChannel(s)                  : 2 channels\r\nChannel positions           : Front: L R\r\nSampling rate               : 44.1 KHz\r\nCompression mode            : Lossy\r\nStream size                 : 188 MiB (10%)\r\nAlignment                   : Aligned on interleaves\r\nInterleave, duration        : 70 ms (2.09 video frames)\r\nInterleave, preload duratio : 208 ms\r\nTitle                       : Beasts of No Nation.2015.ReLeNTLesS.audio.English.2.0\r\nSample Included             : Yes\r\nSource                      : 720 WEB-DL Thanks\r\n\r\nPL0T\r\nA drama based on the experiences of Agu, a child soldier fighting in the civil war of an unnamed African country.\r\n\r\nCAST\r\nDirector: Cary Joji Fukunaga\r\nWriters: Cary Joji Fukunaga (screenplay), Uzodinma Iweala (based on the novel by)\r\nStars: Abraham Attah, Emmanuel Affadzi, Ricky Adelayitor\r\n\r\nN0TE\r\nResized then degrained brightened a touch and sharpened.  Hardcoded English subs for none English parts see sample.\r\n\r\nSCREENS\r\n[img]http://i.imgur.com/MBmVDw1.png[/img]\r\n[img]http://i.imgur.com/n0yRhYJ.png[/img]\r\n[img]http://i.imgur.com/SLZTZI0.png[/img]\r\n[img]http://i.imgur.com/S8ChQse.png[/img]\r\n[img]http://i.imgur.com/7v35BUM.png[/img]\r\n[img]http://i.imgur.com/Xv5Vy5O.png[/img]\r\n[img]http://i.imgur.com/oyy2qkS.png[/img]\r\n[img]http://i.imgur.com/70c1XPP.png[/img]\r\n\r\nTRAiLER\r\n\r\nGREETZ\r\n\r\n\r\nHIVE-CM8, Blackjesus, M0RPH, M00SE, MiLLENiUM,\r\n\r\nMANiX, TiTAN, Anonymous, TuX, \r\n\r\nACAB, KingStoner, FooKas, 4PlayHD, \r\n\r\nSoZE, GodFather, Cld.... \r\n\r\nKeep up the good work guyz","torrent":{"xt":"urn:btih:6e64d22fbe82513f632f53db2acfefa7869930d0","amp;dn":"Beasts+of+No+Nation.2015.WEBRiP.XViD.ReLeNTLesS","amp;tr":["udp%3A%2F%2Ftracker.leechers-paradise.org%3A6969","udp%3A%2F%2Fzer0day.ch%3A1337","udp%3A%2F%2Fopen.demonii.com%3A1337","udp%3A%2F%2Ftracker.coppersurfer.tk%3A6969","udp%3A%2F%2Fexodus.desync.com%3A6969"],"infoHash":"6e64d22fbe82513f632f53db2acfefa7869930d0","infoHashBuffer":{"type":"Buffer","data":[110,100,210,47,190,130,81,63,99,47,83,219,42,207,239,167,134,153,48,208]},"announce":[],"urlList":[]}}